# xmcd
#
# Track frame offsets:
#	150
#	16996
#	27948
#	40987
#	54015
#	69292
#	77092
#	85645
#	97271
#	106530
#	114717
#	116452
#	138809
#	152468
#	160797
#	167119
#	179127
#	185955
#	198130
#
# Disc length: 2821 seconds
# Revision: 3
# Processed by: cddbd v1.5.2PL0 Copyright (c) Steve Scherf et al.
# Submitted via: dBpowerAMP V12.0
#
DISCID=eb0b0313
DTITLE=Various Artist - Etta Baker with Taj Mahal
DYEAR=2004
DGENRE=Blues
TTITLE0=Etta Baker with Taj Mahal - John Henry
TTITLE1=Etta Baker with Taj Mahal - Crow Jane
TTITLE2=Etta Baker with Taj Mahal - Going Down the Road Feeling Bad
TTITLE3=Etta Baker with Taj Mahal - Madison Street Blues
TTITLE4=Etta Baker with Taj Mahal - Railroad Bill
TTITLE5=Etta Baker - Cripple Creek
TTITLE6=Etta Baker with Wayne Martin - Johnson Boys
TTITLE7=Etta Baker - Going to the Race Track
TTITLE8=Etta Baker - Lost John
TTITLE9=Etta Baker - Dew Drop
TTITLE10=Etta Baker - Poem
TTITLE11=Etta Baker, Taj Mahal and Algia Mae Hinton - Comb Blues
TTITLE12=Etta Baker - One Dime Blues
TTITLE13=Boone Reid - Sourwood Mountain
TTITLE14=Etta Baker - Going Down the Road Feeling Bad
TTITLE15=Etta Baker - Railroad Bill
TTITLE16=Boone Reid - Johnson Boys
TTITLE17=Etta Baker - John Henry
TTITLE18=Etta Baker - Bully of the Town
EXTD=
EXTT0=
EXTT1=
EXTT2=
EXTT3=
EXTT4=
EXTT5=
EXTT6=
EXTT7=
EXTT8=
EXTT9=
EXTT10=
EXTT11=
EXTT12=
EXTT13=
EXTT14=
EXTT15=
EXTT16=
EXTT17=
EXTT18=
PLAYORDER=
